<svg xmlns="http://www.w3.org/2000/svg" xmlns:xlink="http://www.w3.org/1999/xlink" width="500" zoomAndPan="magnify" viewBox="0 0 375 374.999991" height="500" preserveAspectRatio="xMidYMid meet" version="1.0"><defs><g/><clipPath id="d1de50687d"><path d="M 0.441406 31 L 52 31 L 52 85 L 0.441406 85 Z M 0.441406 31 " clip-rule="nonzero"/></clipPath><clipPath id="a4560427bf"><rect x="0" width="224" y="0" height="119"/></clipPath><clipPath id="3a4204650f"><rect x="0" width="233" y="0" height="35"/></clipPath><clipPath id="0fd5151243"><rect x="0" width="77" y="0" height="81"/></clipPath></defs><g transform="matrix(1, 0, 0, 1, 37, 113)"><g clip-path="url(#a4560427bf)"><g clip-path="url(#d1de50687d)"><g fill="#ff0044" fill-opacity="1"><g transform="translate(0.500002, 84.512643)"><g><path d="M 0.140625 0 L 17.71875 -46.75 C 18.507812 -48.757812 19.59375 -50.234375 20.96875 -51.171875 C 22.351562 -52.109375 23.953125 -52.578125 25.765625 -52.578125 C 27.585938 -52.578125 29.203125 -52.117188 30.609375 -51.203125 C 32.015625 -50.296875 33.085938 -48.832031 33.828125 -46.8125 L 51.46875 0 L 43.71875 0 L 39.21875 -12.484375 L 12.1875 -12.484375 L 7.609375 0 Z M 14.40625 -18.75 L 37.0625 -18.75 L 27.84375 -44.375 C 27.59375 -45.019531 27.316406 -45.515625 27.015625 -45.859375 C 26.722656 -46.203125 26.304688 -46.375 25.765625 -46.375 C 25.273438 -46.375 24.878906 -46.203125 24.578125 -45.859375 C 24.285156 -45.515625 24.039062 -45.019531 23.84375 -44.375 Z M 14.40625 -18.75 "/></g></g></g></g><g fill="#ff0044" fill-opacity="1"><g transform="translate(49.894264, 84.512643)"><g><path d="M 5.390625 0 L 5.390625 -37.65625 L 12.265625 -37.65625 L 12.265625 0 Z M 8.859375 -43.640625 C 7.628906 -43.640625 6.554688 -44.09375 5.640625 -45 C 4.734375 -45.914062 4.28125 -46.988281 4.28125 -48.21875 C 4.28125 -49.445312 4.734375 -50.515625 5.640625 -51.421875 C 6.554688 -52.335938 7.628906 -52.796875 8.859375 -52.796875 C 10.085938 -52.796875 11.15625 -52.335938 12.0625 -51.421875 C 12.976562 -50.515625 13.4375 -49.445312 13.4375 -48.21875 C 13.4375 -46.988281 12.976562 -45.914062 12.0625 -45 C 11.15625 -44.09375 10.085938 -43.640625 8.859375 -43.640625 Z M 8.859375 -43.640625 "/></g></g></g><g fill="#ff0044" fill-opacity="1"><g transform="translate(65.251314, 84.512643)"><g><path d="M 23.625 0 C 19.738281 0 16.269531 -0.832031 13.21875 -2.5 C 10.164062 -4.175781 7.753906 -6.429688 5.984375 -9.265625 C 4.210938 -12.097656 3.328125 -15.285156 3.328125 -18.828125 C 3.328125 -22.367188 4.210938 -25.554688 5.984375 -28.390625 C 7.753906 -31.222656 10.164062 -33.472656 13.21875 -35.140625 C 16.269531 -36.816406 19.738281 -37.65625 23.625 -37.65625 L 28.0625 -37.65625 L 28.0625 -31.828125 L 23.40625 -31.828125 C 20.894531 -31.828125 18.640625 -31.25 16.640625 -30.09375 C 14.648438 -28.9375 13.078125 -27.375 11.921875 -25.40625 C 10.765625 -23.4375 10.1875 -21.242188 10.1875 -18.828125 C 10.1875 -16.421875 10.765625 -14.226562 11.921875 -12.25 C 13.078125 -10.28125 14.648438 -8.71875 16.640625 -7.5625 C 18.640625 -6.40625 20.894531 -5.828125 23.40625 -5.828125 L 28.0625 -5.828125 L 28.0625 0 Z M 23.625 0 "/></g></g></g><g fill="#ff0044" fill-opacity="1"><g transform="translate(93.455387, 84.512643)"><g><path d="M 23.109375 0.890625 C 19.273438 0.890625 15.878906 0.015625 12.921875 -1.734375 C 9.960938 -3.484375 7.625 -5.847656 5.90625 -8.828125 C 4.1875 -11.804688 3.328125 -15.140625 3.328125 -18.828125 C 3.328125 -22.523438 4.1875 -25.859375 5.90625 -28.828125 C 7.625 -31.804688 9.960938 -34.171875 12.921875 -35.921875 C 15.878906 -37.671875 19.273438 -38.546875 23.109375 -38.546875 C 26.953125 -38.546875 30.363281 -37.671875 33.34375 -35.921875 C 36.320312 -34.171875 38.660156 -31.816406 40.359375 -28.859375 C 42.054688 -25.910156 42.90625 -22.566406 42.90625 -18.828125 C 42.90625 -15.140625 42.054688 -11.804688 40.359375 -8.828125 C 38.660156 -5.847656 36.320312 -3.484375 33.34375 -1.734375 C 30.363281 0.015625 26.953125 0.890625 23.109375 0.890625 Z M 23.109375 -4.953125 C 25.722656 -4.953125 27.988281 -5.566406 29.90625 -6.796875 C 31.820312 -8.023438 33.320312 -9.6875 34.40625 -11.78125 C 35.488281 -13.875 36.03125 -16.222656 36.03125 -18.828125 C 36.03125 -21.441406 35.488281 -23.789062 34.40625 -25.875 C 33.320312 -27.96875 31.820312 -29.628906 29.90625 -30.859375 C 27.988281 -32.097656 25.722656 -32.71875 23.109375 -32.71875 C 20.546875 -32.71875 18.289062 -32.097656 16.34375 -30.859375 C 14.40625 -29.628906 12.894531 -27.96875 11.8125 -25.875 C 10.726562 -23.789062 10.1875 -21.441406 10.1875 -18.828125 C 10.1875 -16.222656 10.726562 -13.875 11.8125 -11.78125 C 12.894531 -9.6875 14.40625 -8.023438 16.34375 -6.796875 C 18.289062 -5.566406 20.546875 -4.953125 23.109375 -4.953125 Z M 23.109375 -4.953125 "/></g></g></g><g fill="#ff0044" fill-opacity="1"><g transform="translate(137.459814, 84.512643)"><g><path d="M 22.75 0.890625 C 19.882812 0.890625 17.269531 0.4375 14.90625 -0.46875 C 12.550781 -1.382812 10.507812 -2.726562 8.78125 -4.5 C 7.0625 -6.269531 5.722656 -8.398438 4.765625 -10.890625 C 3.804688 -13.378906 3.328125 -16.171875 3.328125 -19.265625 C 3.328125 -23.210938 4.125 -26.625 5.71875 -29.5 C 7.320312 -32.382812 9.515625 -34.613281 12.296875 -36.1875 C 15.078125 -37.757812 18.191406 -38.546875 21.640625 -38.546875 C 23.554688 -38.546875 25.390625 -38.222656 27.140625 -37.578125 C 28.890625 -36.941406 30.453125 -36.054688 31.828125 -34.921875 C 33.203125 -33.796875 34.285156 -32.46875 35.078125 -30.9375 L 35.21875 -30.9375 L 35.21875 -53.90625 L 42.015625 -53.90625 L 42.015625 -19.046875 C 42.015625 -14.867188 41.164062 -11.289062 39.46875 -8.3125 C 37.769531 -5.332031 35.476562 -3.050781 32.59375 -1.46875 C 29.71875 0.101562 26.4375 0.890625 22.75 0.890625 Z M 22.75 -4.953125 C 25.0625 -4.953125 27.148438 -5.515625 29.015625 -6.640625 C 30.890625 -7.773438 32.378906 -9.375 33.484375 -11.4375 C 34.597656 -13.507812 35.15625 -15.945312 35.15625 -18.75 C 35.15625 -21.613281 34.597656 -24.085938 33.484375 -26.171875 C 32.378906 -28.265625 30.890625 -29.878906 29.015625 -31.015625 C 27.148438 -32.148438 25.035156 -32.71875 22.671875 -32.71875 C 20.359375 -32.71875 18.253906 -32.125 16.359375 -30.9375 C 14.460938 -29.757812 12.957031 -28.132812 11.84375 -26.0625 C 10.738281 -24 10.1875 -21.585938 10.1875 -18.828125 C 10.1875 -15.972656 10.753906 -13.507812 11.890625 -11.4375 C 13.023438 -9.375 14.535156 -7.773438 16.421875 -6.640625 C 18.316406 -5.515625 20.425781 -4.953125 22.75 -4.953125 Z M 22.75 -4.953125 "/></g></g></g><g fill="#ff0044" fill-opacity="1"><g transform="translate(182.424067, 84.512643)"><g><path d="M 24.515625 0 C 20.378906 0 16.710938 -0.773438 13.515625 -2.328125 C 10.316406 -3.878906 7.816406 -6.066406 6.015625 -8.890625 C 4.222656 -11.722656 3.328125 -15.035156 3.328125 -18.828125 C 3.328125 -22.566406 4.085938 -25.925781 5.609375 -28.90625 C 7.140625 -31.882812 9.257812 -34.234375 11.96875 -35.953125 C 14.675781 -37.679688 17.828125 -38.546875 21.421875 -38.546875 C 25.304688 -38.546875 28.539062 -37.707031 31.125 -36.03125 C 33.707031 -34.363281 35.640625 -32.113281 36.921875 -29.28125 C 38.203125 -26.445312 38.84375 -23.285156 38.84375 -19.796875 C 38.84375 -19.253906 38.828125 -18.6875 38.796875 -18.09375 C 38.773438 -17.5 38.71875 -16.984375 38.625 -16.546875 L 10.5625 -16.546875 C 10.800781 -14.234375 11.5625 -12.273438 12.84375 -10.671875 C 14.125 -9.066406 15.757812 -7.859375 17.75 -7.046875 C 19.75 -6.234375 21.957031 -5.828125 24.375 -5.828125 L 34.1875 -5.828125 L 34.1875 0 Z M 10.484375 -21.34375 L 31.96875 -21.34375 C 31.96875 -22.28125 31.867188 -23.273438 31.671875 -24.328125 C 31.484375 -25.390625 31.140625 -26.425781 30.640625 -27.4375 C 30.148438 -28.445312 29.5 -29.359375 28.6875 -30.171875 C 27.875 -30.984375 26.863281 -31.632812 25.65625 -32.125 C 24.445312 -32.613281 23.035156 -32.859375 21.421875 -32.859375 C 19.691406 -32.859375 18.175781 -32.523438 16.875 -31.859375 C 15.570312 -31.191406 14.453125 -30.304688 13.515625 -29.203125 C 12.578125 -28.097656 11.863281 -26.851562 11.375 -25.46875 C 10.882812 -24.09375 10.585938 -22.71875 10.484375 -21.34375 Z M 10.484375 -21.34375 "/></g></g></g></g></g><g transform="matrix(1, 0, 0, 1, 74, 214)"><g clip-path="url(#3a4204650f)"><g fill="#222222" fill-opacity="1"><g transform="translate(0.859358, 12.643145)"><g><path d="M 1.046875 0 L 1.046875 -8.765625 L 6.546875 -8.765625 L 6.546875 -6.953125 L 3.046875 -6.953125 L 3.046875 -4.765625 L 6.21875 -4.765625 L 6.21875 -3.015625 L 3.046875 -3.015625 L 3.046875 0 Z M 1.046875 0 "/></g></g></g><g fill="#222222" fill-opacity="1"><g transform="translate(10.919302, 12.643145)"><g><path d="M 1.046875 0 L 1.046875 -8.765625 L 4.796875 -8.765625 C 5.460938 -8.765625 6.039062 -8.640625 6.53125 -8.390625 C 7.019531 -8.148438 7.398438 -7.804688 7.671875 -7.359375 C 7.941406 -6.910156 8.078125 -6.375 8.078125 -5.75 C 8.078125 -5.101562 7.929688 -4.546875 7.640625 -4.078125 C 7.347656 -3.617188 6.9375 -3.273438 6.40625 -3.046875 L 8.21875 0 L 5.921875 0 L 4.359375 -2.734375 L 3.046875 -2.734375 L 3.046875 0 Z M 3.015625 -4.40625 L 4.53125 -4.40625 C 5.019531 -4.40625 5.394531 -4.519531 5.65625 -4.75 C 5.925781 -4.976562 6.0625 -5.304688 6.0625 -5.734375 C 6.0625 -6.160156 5.925781 -6.488281 5.65625 -6.71875 C 5.394531 -6.945312 5.019531 -7.0625 4.53125 -7.0625 L 3.015625 -7.0625 Z M 3.015625 -4.40625 "/></g></g></g><g fill="#222222" fill-opacity="1"><g transform="translate(22.693231, 12.643145)"><g><path d="M 5.203125 0.171875 C 4.296875 0.171875 3.488281 -0.0195312 2.78125 -0.40625 C 2.082031 -0.789062 1.53125 -1.328125 1.125 -2.015625 C 0.726562 -2.703125 0.53125 -3.488281 0.53125 -4.375 C 0.53125 -5.269531 0.726562 -6.054688 1.125 -6.734375 C 1.53125 -7.421875 2.082031 -7.957031 2.78125 -8.34375 C 3.488281 -8.738281 4.296875 -8.9375 5.203125 -8.9375 C 6.117188 -8.9375 6.925781 -8.738281 7.625 -8.34375 C 8.332031 -7.957031 8.882812 -7.421875 9.28125 -6.734375 C 9.6875 -6.054688 9.890625 -5.269531 9.890625 -4.375 C 9.890625 -3.488281 9.6875 -2.703125 9.28125 -2.015625 C 8.882812 -1.328125 8.332031 -0.789062 7.625 -0.40625 C 6.925781 -0.0195312 6.117188 0.171875 5.203125 0.171875 Z M 2.5625 -4.375 C 2.5625 -3.851562 2.671875 -3.390625 2.890625 -2.984375 C 3.117188 -2.585938 3.429688 -2.273438 3.828125 -2.046875 C 4.234375 -1.828125 4.691406 -1.71875 5.203125 -1.71875 C 5.734375 -1.71875 6.195312 -1.828125 6.59375 -2.046875 C 6.988281 -2.273438 7.296875 -2.585938 7.515625 -2.984375 C 7.734375 -3.390625 7.84375 -3.851562 7.84375 -4.375 C 7.84375 -4.90625 7.734375 -5.367188 7.515625 -5.765625 C 7.296875 -6.171875 6.988281 -6.484375 6.59375 -6.703125 C 6.195312 -6.929688 5.734375 -7.046875 5.203125 -7.046875 C 4.691406 -7.046875 4.234375 -6.929688 3.828125 -6.703125 C 3.429688 -6.484375 3.117188 -6.171875 2.890625 -5.765625 C 2.671875 -5.367188 2.5625 -4.90625 2.5625 -4.375 Z M 2.5625 -4.375 "/></g></g></g><g fill="#222222" fill-opacity="1"><g transform="translate(36.081056, 12.643145)"><g><path d="M 1.046875 0 L 1.046875 -8.765625 L 2.734375 -8.765625 L 5.859375 -4.21875 L 8.96875 -8.765625 L 10.640625 -8.765625 L 10.640625 0 L 8.65625 0 L 8.65625 -5.265625 L 6.53125 -2.171875 L 5.15625 -2.171875 L 3.03125 -5.28125 L 3.03125 0 Z M 1.046875 0 "/></g></g></g><g fill="#222222" fill-opacity="1"><g transform="translate(50.732487, 12.643145)"><g/></g></g><g fill="#222222" fill-opacity="1"><g transform="translate(56.638817, 12.643145)"><g><path d="M 1.046875 0 L 1.046875 -8.765625 L 3.046875 -8.765625 L 3.046875 0 Z M 1.046875 0 "/></g></g></g><g fill="#222222" fill-opacity="1"><g transform="translate(63.696145, 12.643145)"><g><path d="M 1.046875 0 L 1.046875 -8.765625 L 4.515625 -8.765625 C 5.441406 -8.765625 6.25 -8.578125 6.9375 -8.203125 C 7.632812 -7.835938 8.175781 -7.328125 8.5625 -6.671875 C 8.945312 -6.015625 9.140625 -5.25 9.140625 -4.375 C 9.140625 -3.5 8.945312 -2.734375 8.5625 -2.078125 C 8.175781 -1.421875 7.632812 -0.910156 6.9375 -0.546875 C 6.25 -0.179688 5.441406 0 4.515625 0 Z M 3.046875 -1.828125 L 4.484375 -1.828125 C 4.992188 -1.828125 5.445312 -1.929688 5.84375 -2.140625 C 6.238281 -2.359375 6.546875 -2.65625 6.765625 -3.03125 C 6.984375 -3.414062 7.09375 -3.863281 7.09375 -4.375 C 7.09375 -4.894531 6.984375 -5.34375 6.765625 -5.71875 C 6.546875 -6.101562 6.238281 -6.398438 5.84375 -6.609375 C 5.445312 -6.828125 4.984375 -6.9375 4.453125 -6.9375 L 3.046875 -6.9375 Z M 3.046875 -1.828125 "/></g></g></g><g fill="#222222" fill-opacity="1"><g transform="translate(76.320815, 12.643145)"><g><path d="M 1.046875 0 L 1.046875 -8.765625 L 6.8125 -8.765625 L 6.8125 -7.078125 L 3.03125 -7.078125 L 3.03125 -5.265625 L 6.46875 -5.265625 L 6.46875 -3.609375 L 3.03125 -3.609375 L 3.03125 -1.6875 L 6.953125 -1.6875 L 6.953125 0 Z M 1.046875 0 "/></g></g></g><g fill="#222222" fill-opacity="1"><g transform="translate(86.868678, 12.643145)"><g><path d="M 0.109375 0 L 3.59375 -8.765625 L 5.546875 -8.765625 L 9.03125 0 L 6.890625 0 L 6.3125 -1.515625 L 2.828125 -1.515625 L 2.234375 0 Z M 3.34375 -3.078125 L 5.8125 -3.078125 L 4.5625 -6.28125 Z M 3.34375 -3.078125 "/></g></g></g><g fill="#222222" fill-opacity="1"><g transform="translate(98.967887, 12.643145)"><g/></g></g><g fill="#222222" fill-opacity="1"><g transform="translate(104.874217, 12.643145)"><g><path d="M 3.15625 0 L 3.15625 -6.890625 L 0.375 -6.890625 L 0.375 -8.765625 L 7.921875 -8.765625 L 7.921875 -6.890625 L 5.140625 -6.890625 L 5.140625 0 Z M 3.15625 0 "/></g></g></g><g fill="#222222" fill-opacity="1"><g transform="translate(116.135204, 12.643145)"><g><path d="M 5.203125 0.171875 C 4.296875 0.171875 3.488281 -0.0195312 2.78125 -0.40625 C 2.082031 -0.789062 1.53125 -1.328125 1.125 -2.015625 C 0.726562 -2.703125 0.53125 -3.488281 0.53125 -4.375 C 0.53125 -5.269531 0.726562 -6.054688 1.125 -6.734375 C 1.53125 -7.421875 2.082031 -7.957031 2.78125 -8.34375 C 3.488281 -8.738281 4.296875 -8.9375 5.203125 -8.9375 C 6.117188 -8.9375 6.925781 -8.738281 7.625 -8.34375 C 8.332031 -7.957031 8.882812 -7.421875 9.28125 -6.734375 C 9.6875 -6.054688 9.890625 -5.269531 9.890625 -4.375 C 9.890625 -3.488281 9.6875 -2.703125 9.28125 -2.015625 C 8.882812 -1.328125 8.332031 -0.789062 7.625 -0.40625 C 6.925781 -0.0195312 6.117188 0.171875 5.203125 0.171875 Z M 2.5625 -4.375 C 2.5625 -3.851562 2.671875 -3.390625 2.890625 -2.984375 C 3.117188 -2.585938 3.429688 -2.273438 3.828125 -2.046875 C 4.234375 -1.828125 4.691406 -1.71875 5.203125 -1.71875 C 5.734375 -1.71875 6.195312 -1.828125 6.59375 -2.046875 C 6.988281 -2.273438 7.296875 -2.585938 7.515625 -2.984375 C 7.734375 -3.390625 7.84375 -3.851562 7.84375 -4.375 C 7.84375 -4.90625 7.734375 -5.367188 7.515625 -5.765625 C 7.296875 -6.171875 6.988281 -6.484375 6.59375 -6.703125 C 6.195312 -6.929688 5.734375 -7.046875 5.203125 -7.046875 C 4.691406 -7.046875 4.234375 -6.929688 3.828125 -6.703125 C 3.429688 -6.484375 3.117188 -6.171875 2.890625 -5.765625 C 2.671875 -5.367188 2.5625 -4.90625 2.5625 -4.375 Z M 2.5625 -4.375 "/></g></g></g><g fill="#222222" fill-opacity="1"><g transform="translate(129.523028, 12.643145)"><g/></g></g><g fill="#222222" fill-opacity="1"><g transform="translate(135.429358, 12.643145)"><g><path d="M 4.109375 0.171875 C 3.367188 0.171875 2.734375 0.0507812 2.203125 -0.1875 C 1.679688 -0.425781 1.273438 -0.769531 0.984375 -1.21875 C 0.691406 -1.664062 0.546875 -2.191406 0.546875 -2.796875 L 2.5 -2.796875 C 2.5 -2.378906 2.640625 -2.050781 2.921875 -1.8125 C 3.210938 -1.582031 3.601562 -1.46875 4.09375 -1.46875 C 4.507812 -1.46875 4.835938 -1.546875 5.078125 -1.703125 C 5.316406 -1.867188 5.4375 -2.097656 5.4375 -2.390625 C 5.4375 -2.703125 5.289062 -2.953125 5 -3.140625 C 4.707031 -3.328125 4.253906 -3.488281 3.640625 -3.625 C 2.617188 -3.84375 1.859375 -4.171875 1.359375 -4.609375 C 0.867188 -5.054688 0.625 -5.632812 0.625 -6.34375 C 0.625 -7.144531 0.914062 -7.773438 1.5 -8.234375 C 2.082031 -8.703125 2.878906 -8.9375 3.890625 -8.9375 C 4.585938 -8.9375 5.1875 -8.816406 5.6875 -8.578125 C 6.195312 -8.335938 6.59375 -8.003906 6.875 -7.578125 C 7.15625 -7.148438 7.296875 -6.640625 7.296875 -6.046875 L 5.375 -6.046875 C 5.375 -6.441406 5.242188 -6.75 4.984375 -6.96875 C 4.734375 -7.195312 4.378906 -7.3125 3.921875 -7.3125 C 3.503906 -7.3125 3.171875 -7.226562 2.921875 -7.0625 C 2.679688 -6.90625 2.5625 -6.679688 2.5625 -6.390625 C 2.5625 -6.117188 2.691406 -5.890625 2.953125 -5.703125 C 3.222656 -5.523438 3.695312 -5.351562 4.375 -5.1875 C 5.457031 -4.9375 6.238281 -4.59375 6.71875 -4.15625 C 7.207031 -3.71875 7.453125 -3.15625 7.453125 -2.46875 C 7.453125 -1.632812 7.15625 -0.984375 6.5625 -0.515625 C 5.96875 -0.0546875 5.148438 0.171875 4.109375 0.171875 Z M 4.109375 0.171875 "/></g></g></g><g fill="#222222" fill-opacity="1"><g transform="translate(146.415096, 12.643145)"><g><path d="M 5.203125 0.171875 C 4.296875 0.171875 3.488281 -0.0195312 2.78125 -0.40625 C 2.082031 -0.789062 1.53125 -1.328125 1.125 -2.015625 C 0.726562 -2.703125 0.53125 -3.488281 0.53125 -4.375 C 0.53125 -5.269531 0.726562 -6.054688 1.125 -6.734375 C 1.53125 -7.421875 2.082031 -7.957031 2.78125 -8.34375 C 3.488281 -8.738281 4.296875 -8.9375 5.203125 -8.9375 C 6.117188 -8.9375 6.925781 -8.738281 7.625 -8.34375 C 8.332031 -7.957031 8.882812 -7.421875 9.28125 -6.734375 C 9.6875 -6.054688 9.890625 -5.269531 9.890625 -4.375 C 9.890625 -3.488281 9.6875 -2.703125 9.28125 -2.015625 C 8.882812 -1.328125 8.332031 -0.789062 7.625 -0.40625 C 6.925781 -0.0195312 6.117188 0.171875 5.203125 0.171875 Z M 2.5625 -4.375 C 2.5625 -3.851562 2.671875 -3.390625 2.890625 -2.984375 C 3.117188 -2.585938 3.429688 -2.273438 3.828125 -2.046875 C 4.234375 -1.828125 4.691406 -1.71875 5.203125 -1.71875 C 5.734375 -1.71875 6.195312 -1.828125 6.59375 -2.046875 C 6.988281 -2.273438 7.296875 -2.585938 7.515625 -2.984375 C 7.734375 -3.390625 7.84375 -3.851562 7.84375 -4.375 C 7.84375 -4.90625 7.734375 -5.367188 7.515625 -5.765625 C 7.296875 -6.171875 6.988281 -6.484375 6.59375 -6.703125 C 6.195312 -6.929688 5.734375 -7.046875 5.203125 -7.046875 C 4.691406 -7.046875 4.234375 -6.929688 3.828125 -6.703125 C 3.429688 -6.484375 3.117188 -6.171875 2.890625 -5.765625 C 2.671875 -5.367188 2.5625 -4.90625 2.5625 -4.375 Z M 2.5625 -4.375 "/></g></g></g><g fill="#222222" fill-opacity="1"><g transform="translate(159.802921, 12.643145)"><g><path d="M 1.046875 0 L 1.046875 -8.765625 L 3.046875 -8.765625 L 3.046875 -1.859375 L 6.875 -1.859375 L 6.875 0 Z M 1.046875 0 "/></g></g></g><g fill="#222222" fill-opacity="1"><g transform="translate(169.975459, 12.643145)"><g><path d="M 4.625 0.171875 C 3.863281 0.171875 3.210938 0.0195312 2.671875 -0.28125 C 2.128906 -0.582031 1.707031 -1.015625 1.40625 -1.578125 C 1.113281 -2.140625 0.96875 -2.816406 0.96875 -3.609375 L 0.96875 -8.765625 L 2.953125 -8.765625 L 2.953125 -3.734375 C 2.953125 -2.390625 3.507812 -1.71875 4.625 -1.71875 C 5.75 -1.71875 6.3125 -2.390625 6.3125 -3.734375 L 6.3125 -8.765625 L 8.296875 -8.765625 L 8.296875 -3.609375 C 8.296875 -2.816406 8.144531 -2.140625 7.84375 -1.578125 C 7.550781 -1.015625 7.128906 -0.582031 6.578125 -0.28125 C 6.035156 0.0195312 5.382812 0.171875 4.625 0.171875 Z M 4.625 0.171875 "/></g></g></g><g fill="#222222" fill-opacity="1"><g transform="translate(182.199781, 12.643145)"><g><path d="M 3.15625 0 L 3.15625 -6.890625 L 0.375 -6.890625 L 0.375 -8.765625 L 7.921875 -8.765625 L 7.921875 -6.890625 L 5.140625 -6.890625 L 5.140625 0 Z M 3.15625 0 "/></g></g></g><g fill="#222222" fill-opacity="1"><g transform="translate(193.460768, 12.643145)"><g><path d="M 1.046875 0 L 1.046875 -8.765625 L 3.046875 -8.765625 L 3.046875 0 Z M 1.046875 0 "/></g></g></g><g fill="#222222" fill-opacity="1"><g transform="translate(200.518096, 12.643145)"><g><path d="M 5.203125 0.171875 C 4.296875 0.171875 3.488281 -0.0195312 2.78125 -0.40625 C 2.082031 -0.789062 1.53125 -1.328125 1.125 -2.015625 C 0.726562 -2.703125 0.53125 -3.488281 0.53125 -4.375 C 0.53125 -5.269531 0.726562 -6.054688 1.125 -6.734375 C 1.53125 -7.421875 2.082031 -7.957031 2.78125 -8.34375 C 3.488281 -8.738281 4.296875 -8.9375 5.203125 -8.9375 C 6.117188 -8.9375 6.925781 -8.738281 7.625 -8.34375 C 8.332031 -7.957031 8.882812 -7.421875 9.28125 -6.734375 C 9.6875 -6.054688 9.890625 -5.269531 9.890625 -4.375 C 9.890625 -3.488281 9.6875 -2.703125 9.28125 -2.015625 C 8.882812 -1.328125 8.332031 -0.789062 7.625 -0.40625 C 6.925781 -0.0195312 6.117188 0.171875 5.203125 0.171875 Z M 2.5625 -4.375 C 2.5625 -3.851562 2.671875 -3.390625 2.890625 -2.984375 C 3.117188 -2.585938 3.429688 -2.273438 3.828125 -2.046875 C 4.234375 -1.828125 4.691406 -1.71875 5.203125 -1.71875 C 5.734375 -1.71875 6.195312 -1.828125 6.59375 -2.046875 C 6.988281 -2.273438 7.296875 -2.585938 7.515625 -2.984375 C 7.734375 -3.390625 7.84375 -3.851562 7.84375 -4.375 C 7.84375 -4.90625 7.734375 -5.367188 7.515625 -5.765625 C 7.296875 -6.171875 6.988281 -6.484375 6.59375 -6.703125 C 6.195312 -6.929688 5.734375 -7.046875 5.203125 -7.046875 C 4.691406 -7.046875 4.234375 -6.929688 3.828125 -6.703125 C 3.429688 -6.484375 3.117188 -6.171875 2.890625 -5.765625 C 2.671875 -5.367188 2.5625 -4.90625 2.5625 -4.375 Z M 2.5625 -4.375 "/></g></g></g><g fill="#222222" fill-opacity="1"><g transform="translate(213.90592, 12.643145)"><g><path d="M 1.046875 0 L 1.046875 -8.765625 L 2.734375 -8.765625 L 6.609375 -3.421875 L 6.609375 -8.765625 L 8.578125 -8.765625 L 8.578125 0 L 6.890625 0 L 3.03125 -5.375 L 3.03125 0 Z M 1.046875 0 "/></g></g></g><g fill="#222222" fill-opacity="1"><g transform="translate(226.510509, 12.643145)"><g/></g></g><g fill="#222222" fill-opacity="1"><g transform="translate(19.207723, 28.600796)"><g><path d="M 2.546875 0 L 0.21875 -6.5 L 1.328125 -6.5 L 2.359375 -3.546875 L 3.0625 -1.5625 L 3.828125 -3.546875 L 4.9375 -6.5 L 5.90625 -6.5 L 7.8125 -1.578125 L 8.5 -3.546875 L 9.546875 -6.5 L 10.65625 -6.5 L 8.328125 0 L 7.328125 0 L 6.28125 -2.671875 L 5.4375 -4.9375 L 3.546875 0 Z M 2.546875 0 "/></g></g></g><g fill="#222222" fill-opacity="1"><g transform="translate(34.184907, 28.600796)"><g><path d="M 2.546875 0 L 0.21875 -6.5 L 1.328125 -6.5 L 2.359375 -3.546875 L 3.0625 -1.5625 L 3.828125 -3.546875 L 4.9375 -6.5 L 5.90625 -6.5 L 7.8125 -1.578125 L 8.5 -3.546875 L 9.546875 -6.5 L 10.65625 -6.5 L 8.328125 0 L 7.328125 0 L 6.28125 -2.671875 L 5.4375 -4.9375 L 3.546875 0 Z M 2.546875 0 "/></g></g></g><g fill="#222222" fill-opacity="1"><g transform="translate(49.162092, 28.600796)"><g><path d="M 2.546875 0 L 0.21875 -6.5 L 1.328125 -6.5 L 2.359375 -3.546875 L 3.0625 -1.5625 L 3.828125 -3.546875 L 4.9375 -6.5 L 5.90625 -6.5 L 7.8125 -1.578125 L 8.5 -3.546875 L 9.546875 -6.5 L 10.65625 -6.5 L 8.328125 0 L 7.328125 0 L 6.28125 -2.671875 L 5.4375 -4.9375 L 3.546875 0 Z M 2.546875 0 "/></g></g></g><g fill="#222222" fill-opacity="1"><g transform="translate(64.139276, 28.600796)"><g><path d="M 1.609375 0.09375 C 1.347656 0.09375 1.140625 0.015625 0.984375 -0.140625 C 0.835938 -0.296875 0.765625 -0.488281 0.765625 -0.71875 C 0.765625 -0.96875 0.835938 -1.164062 0.984375 -1.3125 C 1.140625 -1.46875 1.347656 -1.546875 1.609375 -1.546875 C 1.859375 -1.546875 2.0625 -1.46875 2.21875 -1.3125 C 2.375 -1.164062 2.453125 -0.96875 2.453125 -0.71875 C 2.453125 -0.488281 2.375 -0.296875 2.21875 -0.140625 C 2.0625 0.015625 1.859375 0.09375 1.609375 0.09375 Z M 1.609375 0.09375 "/></g></g></g><g fill="#222222" fill-opacity="1"><g transform="translate(71.472311, 28.600796)"><g><path d="M 3.296875 0.09375 C 2.503906 0.09375 1.882812 -0.0820312 1.4375 -0.4375 C 1 -0.789062 0.78125 -1.269531 0.78125 -1.875 C 0.78125 -2.46875 0.984375 -2.9375 1.390625 -3.28125 C 1.804688 -3.632812 2.351562 -3.8125 3.03125 -3.8125 L 5.6875 -3.8125 L 5.6875 -4.0625 C 5.6875 -4.5625 5.523438 -4.957031 5.203125 -5.25 C 4.890625 -5.539062 4.457031 -5.6875 3.90625 -5.6875 C 3.488281 -5.6875 3.125 -5.59375 2.8125 -5.40625 C 2.507812 -5.21875 2.300781 -4.960938 2.1875 -4.640625 L 1.125 -4.640625 C 1.269531 -5.265625 1.585938 -5.753906 2.078125 -6.109375 C 2.578125 -6.472656 3.179688 -6.65625 3.890625 -6.65625 C 4.460938 -6.65625 4.957031 -6.546875 5.375 -6.328125 C 5.800781 -6.117188 6.132812 -5.820312 6.375 -5.4375 C 6.613281 -5.0625 6.734375 -4.625 6.734375 -4.125 L 6.734375 0 L 5.875 0 L 5.75 -0.90625 C 5.164062 -0.238281 4.347656 0.09375 3.296875 0.09375 Z M 1.84375 -1.890625 C 1.84375 -1.578125 1.972656 -1.320312 2.234375 -1.125 C 2.503906 -0.9375 2.867188 -0.84375 3.328125 -0.84375 C 3.773438 -0.84375 4.175781 -0.925781 4.53125 -1.09375 C 4.882812 -1.269531 5.164062 -1.515625 5.375 -1.828125 C 5.582031 -2.140625 5.6875 -2.492188 5.6875 -2.890625 L 3.0625 -2.890625 C 2.707031 -2.890625 2.414062 -2.800781 2.1875 -2.625 C 1.957031 -2.445312 1.84375 -2.203125 1.84375 -1.890625 Z M 1.84375 -1.890625 "/></g></g></g><g fill="#222222" fill-opacity="1"><g transform="translate(83.346803, 28.600796)"><g><path d="M 1.15625 0 L 1.15625 -6.5 L 2.21875 -6.5 L 2.21875 0 Z M 0.84375 -8.390625 C 0.84375 -8.628906 0.914062 -8.828125 1.0625 -8.984375 C 1.21875 -9.140625 1.425781 -9.21875 1.6875 -9.21875 C 1.945312 -9.21875 2.148438 -9.140625 2.296875 -8.984375 C 2.453125 -8.828125 2.53125 -8.628906 2.53125 -8.390625 C 2.53125 -8.148438 2.453125 -7.953125 2.296875 -7.796875 C 2.148438 -7.648438 1.945312 -7.578125 1.6875 -7.578125 C 1.425781 -7.578125 1.21875 -7.648438 1.0625 -7.796875 C 0.914062 -7.953125 0.84375 -8.148438 0.84375 -8.390625 Z M 0.84375 -8.390625 "/></g></g></g><g fill="#222222" fill-opacity="1"><g transform="translate(90.842493, 28.600796)"><g><path d="M 4 0.15625 C 3.34375 0.15625 2.765625 0.0078125 2.265625 -0.28125 C 1.765625 -0.570312 1.367188 -0.972656 1.078125 -1.484375 C 0.796875 -2.003906 0.65625 -2.59375 0.65625 -3.25 C 0.65625 -3.914062 0.796875 -4.503906 1.078125 -5.015625 C 1.367188 -5.523438 1.765625 -5.925781 2.265625 -6.21875 C 2.765625 -6.507812 3.34375 -6.65625 4 -6.65625 C 4.539062 -6.65625 5.035156 -6.550781 5.484375 -6.34375 C 5.929688 -6.144531 6.304688 -5.863281 6.609375 -5.5 C 6.921875 -5.132812 7.132812 -4.707031 7.25 -4.21875 L 6.1875 -4.21875 C 5.988281 -4.664062 5.695312 -5.015625 5.3125 -5.265625 C 4.925781 -5.523438 4.488281 -5.65625 4 -5.65625 C 3.550781 -5.65625 3.15625 -5.550781 2.8125 -5.34375 C 2.46875 -5.144531 2.195312 -4.863281 2 -4.5 C 1.800781 -4.132812 1.703125 -3.71875 1.703125 -3.25 C 1.703125 -2.78125 1.800781 -2.363281 2 -2 C 2.195312 -1.644531 2.46875 -1.363281 2.8125 -1.15625 C 3.15625 -0.945312 3.550781 -0.84375 4 -0.84375 C 4.519531 -0.84375 4.976562 -0.984375 5.375 -1.265625 C 5.769531 -1.546875 6.046875 -1.921875 6.203125 -2.390625 L 7.328125 -2.390625 C 7.109375 -1.609375 6.703125 -0.988281 6.109375 -0.53125 C 5.515625 -0.0703125 4.8125 0.15625 4 0.15625 Z M 4 0.15625 "/></g></g></g><g fill="#222222" fill-opacity="1"><g transform="translate(102.892129, 28.600796)"><g><path d="M 4.09375 0.15625 C 3.414062 0.15625 2.816406 0.0078125 2.296875 -0.28125 C 1.785156 -0.570312 1.382812 -0.972656 1.09375 -1.484375 C 0.800781 -2.003906 0.65625 -2.59375 0.65625 -3.25 C 0.65625 -3.914062 0.800781 -4.503906 1.09375 -5.015625 C 1.382812 -5.523438 1.785156 -5.925781 2.296875 -6.21875 C 2.816406 -6.507812 3.414062 -6.65625 4.09375 -6.65625 C 4.769531 -6.65625 5.363281 -6.507812 5.875 -6.21875 C 6.394531 -5.925781 6.800781 -5.523438 7.09375 -5.015625 C 7.382812 -4.503906 7.53125 -3.914062 7.53125 -3.25 C 7.53125 -2.59375 7.382812 -2.003906 7.09375 -1.484375 C 6.800781 -0.972656 6.394531 -0.570312 5.875 -0.28125 C 5.363281 0.0078125 4.769531 0.15625 4.09375 0.15625 Z M 1.703125 -3.25 C 1.703125 -2.78125 1.800781 -2.363281 2 -2 C 2.207031 -1.632812 2.488281 -1.347656 2.84375 -1.140625 C 3.207031 -0.941406 3.625 -0.84375 4.09375 -0.84375 C 4.5625 -0.84375 4.972656 -0.941406 5.328125 -1.140625 C 5.691406 -1.347656 5.972656 -1.632812 6.171875 -2 C 6.378906 -2.363281 6.484375 -2.78125 6.484375 -3.25 C 6.484375 -3.726562 6.378906 -4.144531 6.171875 -4.5 C 5.972656 -4.863281 5.691406 -5.144531 5.328125 -5.34375 C 4.972656 -5.550781 4.5625 -5.65625 4.09375 -5.65625 C 3.625 -5.65625 3.207031 -5.550781 2.84375 -5.34375 C 2.488281 -5.144531 2.207031 -4.863281 2 -4.5 C 1.800781 -4.144531 1.703125 -3.726562 1.703125 -3.25 Z M 1.703125 -3.25 "/></g></g></g><g fill="#222222" fill-opacity="1"><g transform="translate(115.191992, 28.600796)"><g><path d="M 3.96875 0.15625 C 3.320312 0.15625 2.75 0.0078125 2.25 -0.28125 C 1.75 -0.570312 1.359375 -0.972656 1.078125 -1.484375 C 0.796875 -2.003906 0.65625 -2.59375 0.65625 -3.25 C 0.65625 -3.914062 0.796875 -4.5 1.078125 -5 C 1.359375 -5.507812 1.75 -5.910156 2.25 -6.203125 C 2.75 -6.503906 3.320312 -6.65625 3.96875 -6.65625 C 4.476562 -6.65625 4.941406 -6.5625 5.359375 -6.375 C 5.785156 -6.1875 6.148438 -5.921875 6.453125 -5.578125 L 6.453125 -9.265625 L 7.5 -9.265625 L 7.5 0 L 6.640625 0 L 6.515625 -1 C 6.210938 -0.644531 5.84375 -0.363281 5.40625 -0.15625 C 4.96875 0.0507812 4.488281 0.15625 3.96875 0.15625 Z M 1.703125 -3.25 C 1.703125 -2.78125 1.800781 -2.363281 2 -2 C 2.207031 -1.644531 2.488281 -1.363281 2.84375 -1.15625 C 3.207031 -0.945312 3.625 -0.84375 4.09375 -0.84375 C 4.570312 -0.84375 4.988281 -0.945312 5.34375 -1.15625 C 5.695312 -1.363281 5.972656 -1.644531 6.171875 -2 C 6.378906 -2.363281 6.484375 -2.78125 6.484375 -3.25 C 6.484375 -3.71875 6.378906 -4.132812 6.171875 -4.5 C 5.972656 -4.863281 5.695312 -5.144531 5.34375 -5.34375 C 4.988281 -5.550781 4.570312 -5.65625 4.09375 -5.65625 C 3.625 -5.65625 3.207031 -5.550781 2.84375 -5.34375 C 2.488281 -5.144531 2.207031 -4.863281 2 -4.5 C 1.800781 -4.132812 1.703125 -3.71875 1.703125 -3.25 Z M 1.703125 -3.25 "/></g></g></g><g fill="#222222" fill-opacity="1"><g transform="translate(127.967257, 28.600796)"><g><path d="M 3.984375 0.15625 C 3.328125 0.15625 2.75 0.015625 2.25 -0.265625 C 1.75 -0.554688 1.359375 -0.957031 1.078125 -1.46875 C 0.796875 -1.988281 0.65625 -2.582031 0.65625 -3.25 C 0.65625 -3.914062 0.796875 -4.503906 1.078125 -5.015625 C 1.359375 -5.535156 1.75 -5.9375 2.25 -6.21875 C 2.757812 -6.507812 3.34375 -6.65625 4 -6.65625 C 4.6875 -6.65625 5.285156 -6.492188 5.796875 -6.171875 C 6.304688 -5.847656 6.695312 -5.398438 6.96875 -4.828125 C 7.238281 -4.253906 7.359375 -3.585938 7.328125 -2.828125 L 1.71875 -2.828125 C 1.800781 -2.222656 2.046875 -1.738281 2.453125 -1.375 C 2.859375 -1.007812 3.375 -0.828125 4 -0.828125 C 4.414062 -0.828125 4.800781 -0.914062 5.15625 -1.09375 C 5.507812 -1.28125 5.785156 -1.546875 5.984375 -1.890625 L 7.171875 -1.890625 C 6.910156 -1.253906 6.492188 -0.753906 5.921875 -0.390625 C 5.359375 -0.0234375 4.710938 0.15625 3.984375 0.15625 Z M 1.734375 -3.75 L 6.28125 -3.75 C 6.175781 -4.34375 5.914062 -4.8125 5.5 -5.15625 C 5.082031 -5.5 4.582031 -5.671875 4 -5.671875 C 3.394531 -5.671875 2.882812 -5.492188 2.46875 -5.140625 C 2.0625 -4.796875 1.816406 -4.332031 1.734375 -3.75 Z M 1.734375 -3.75 "/></g></g></g><g fill="#222222" fill-opacity="1"><g transform="translate(140.041916, 28.600796)"><g><path d="M 4.703125 0.15625 C 4.171875 0.15625 3.6875 0.0507812 3.25 -0.15625 C 2.8125 -0.363281 2.445312 -0.644531 2.15625 -1 L 2.03125 0 L 1.15625 0 L 1.15625 -9.265625 L 2.21875 -9.265625 L 2.21875 -5.5625 C 2.507812 -5.90625 2.867188 -6.171875 3.296875 -6.359375 C 3.722656 -6.554688 4.191406 -6.65625 4.703125 -6.65625 C 5.347656 -6.65625 5.914062 -6.503906 6.40625 -6.203125 C 6.90625 -5.910156 7.296875 -5.507812 7.578125 -5 C 7.867188 -4.5 8.015625 -3.914062 8.015625 -3.25 C 8.015625 -2.59375 7.867188 -2.003906 7.578125 -1.484375 C 7.296875 -0.972656 6.90625 -0.570312 6.40625 -0.28125 C 5.914062 0.0078125 5.347656 0.15625 4.703125 0.15625 Z M 2.171875 -3.25 C 2.171875 -2.78125 2.273438 -2.363281 2.484375 -2 C 2.691406 -1.644531 2.972656 -1.363281 3.328125 -1.15625 C 3.691406 -0.945312 4.101562 -0.84375 4.5625 -0.84375 C 5.039062 -0.84375 5.457031 -0.945312 5.8125 -1.15625 C 6.175781 -1.363281 6.457031 -1.644531 6.65625 -2 C 6.851562 -2.363281 6.953125 -2.78125 6.953125 -3.25 C 6.953125 -3.71875 6.851562 -4.132812 6.65625 -4.5 C 6.457031 -4.863281 6.175781 -5.144531 5.8125 -5.34375 C 5.457031 -5.550781 5.039062 -5.65625 4.5625 -5.65625 C 4.101562 -5.65625 3.691406 -5.550781 3.328125 -5.34375 C 2.972656 -5.144531 2.691406 -4.863281 2.484375 -4.5 C 2.273438 -4.132812 2.171875 -3.71875 2.171875 -3.25 Z M 2.171875 -3.25 "/></g></g></g><g fill="#222222" fill-opacity="1"><g transform="translate(152.81718, 28.600796)"><g><path d="M 3.96875 0.15625 C 3.320312 0.15625 2.75 0.0078125 2.25 -0.28125 C 1.75 -0.570312 1.359375 -0.972656 1.078125 -1.484375 C 0.796875 -2.003906 0.65625 -2.59375 0.65625 -3.25 C 0.65625 -3.914062 0.796875 -4.5 1.078125 -5 C 1.359375 -5.507812 1.75 -5.910156 2.25 -6.203125 C 2.75 -6.503906 3.320312 -6.65625 3.96875 -6.65625 C 4.476562 -6.65625 4.941406 -6.5625 5.359375 -6.375 C 5.785156 -6.1875 6.148438 -5.921875 6.453125 -5.578125 L 6.453125 -9.265625 L 7.5 -9.265625 L 7.5 0 L 6.640625 0 L 6.515625 -1 C 6.210938 -0.644531 5.84375 -0.363281 5.40625 -0.15625 C 4.96875 0.0507812 4.488281 0.15625 3.96875 0.15625 Z M 1.703125 -3.25 C 1.703125 -2.78125 1.800781 -2.363281 2 -2 C 2.207031 -1.644531 2.488281 -1.363281 2.84375 -1.15625 C 3.207031 -0.945312 3.625 -0.84375 4.09375 -0.84375 C 4.570312 -0.84375 4.988281 -0.945312 5.34375 -1.15625 C 5.695312 -1.363281 5.972656 -1.644531 6.171875 -2 C 6.378906 -2.363281 6.484375 -2.78125 6.484375 -3.25 C 6.484375 -3.71875 6.378906 -4.132812 6.171875 -4.5 C 5.972656 -4.863281 5.695312 -5.144531 5.34375 -5.34375 C 4.988281 -5.550781 4.570312 -5.65625 4.09375 -5.65625 C 3.625 -5.65625 3.207031 -5.550781 2.84375 -5.34375 C 2.488281 -5.144531 2.207031 -4.863281 2 -4.5 C 1.800781 -4.132812 1.703125 -3.71875 1.703125 -3.25 Z M 1.703125 -3.25 "/></g></g></g><g fill="#222222" fill-opacity="1"><g transform="translate(165.592444, 28.600796)"><g><path d="M 1.609375 0.09375 C 1.347656 0.09375 1.140625 0.015625 0.984375 -0.140625 C 0.835938 -0.296875 0.765625 -0.488281 0.765625 -0.71875 C 0.765625 -0.96875 0.835938 -1.164062 0.984375 -1.3125 C 1.140625 -1.46875 1.347656 -1.546875 1.609375 -1.546875 C 1.859375 -1.546875 2.0625 -1.46875 2.21875 -1.3125 C 2.375 -1.164062 2.453125 -0.96875 2.453125 -0.71875 C 2.453125 -0.488281 2.375 -0.296875 2.21875 -0.140625 C 2.0625 0.015625 1.859375 0.09375 1.609375 0.09375 Z M 1.609375 0.09375 "/></g></g></g><g fill="#222222" fill-opacity="1"><g transform="translate(172.92548, 28.600796)"><g><path d="M 4 0.15625 C 3.34375 0.15625 2.765625 0.0078125 2.265625 -0.28125 C 1.765625 -0.570312 1.367188 -0.972656 1.078125 -1.484375 C 0.796875 -2.003906 0.65625 -2.59375 0.65625 -3.25 C 0.65625 -3.914062 0.796875 -4.503906 1.078125 -5.015625 C 1.367188 -5.523438 1.765625 -5.925781 2.265625 -6.21875 C 2.765625 -6.507812 3.34375 -6.65625 4 -6.65625 C 4.539062 -6.65625 5.035156 -6.550781 5.484375 -6.34375 C 5.929688 -6.144531 6.304688 -5.863281 6.609375 -5.5 C 6.921875 -5.132812 7.132812 -4.707031 7.25 -4.21875 L 6.1875 -4.21875 C 5.988281 -4.664062 5.695312 -5.015625 5.3125 -5.265625 C 4.925781 -5.523438 4.488281 -5.65625 4 -5.65625 C 3.550781 -5.65625 3.15625 -5.550781 2.8125 -5.34375 C 2.46875 -5.144531 2.195312 -4.863281 2 -4.5 C 1.800781 -4.132812 1.703125 -3.71875 1.703125 -3.25 C 1.703125 -2.78125 1.800781 -2.363281 2 -2 C 2.195312 -1.644531 2.46875 -1.363281 2.8125 -1.15625 C 3.15625 -0.945312 3.550781 -0.84375 4 -0.84375 C 4.519531 -0.84375 4.976562 -0.984375 5.375 -1.265625 C 5.769531 -1.546875 6.046875 -1.921875 6.203125 -2.390625 L 7.328125 -2.390625 C 7.109375 -1.609375 6.703125 -0.988281 6.109375 -0.53125 C 5.515625 -0.0703125 4.8125 0.15625 4 0.15625 Z M 4 0.15625 "/></g></g></g><g fill="#222222" fill-opacity="1"><g transform="translate(184.975116, 28.600796)"><g><path d="M 4.09375 0.15625 C 3.414062 0.15625 2.816406 0.0078125 2.296875 -0.28125 C 1.785156 -0.570312 1.382812 -0.972656 1.09375 -1.484375 C 0.800781 -2.003906 0.65625 -2.59375 0.65625 -3.25 C 0.65625 -3.914062 0.800781 -4.503906 1.09375 -5.015625 C 1.382812 -5.523438 1.785156 -5.925781 2.296875 -6.21875 C 2.816406 -6.507812 3.414062 -6.65625 4.09375 -6.65625 C 4.769531 -6.65625 5.363281 -6.507812 5.875 -6.21875 C 6.394531 -5.925781 6.800781 -5.523438 7.09375 -5.015625 C 7.382812 -4.503906 7.53125 -3.914062 7.53125 -3.25 C 7.53125 -2.59375 7.382812 -2.003906 7.09375 -1.484375 C 6.800781 -0.972656 6.394531 -0.570312 5.875 -0.28125 C 5.363281 0.0078125 4.769531 0.15625 4.09375 0.15625 Z M 1.703125 -3.25 C 1.703125 -2.78125 1.800781 -2.363281 2 -2 C 2.207031 -1.632812 2.488281 -1.347656 2.84375 -1.140625 C 3.207031 -0.941406 3.625 -0.84375 4.09375 -0.84375 C 4.5625 -0.84375 4.972656 -0.941406 5.328125 -1.140625 C 5.691406 -1.347656 5.972656 -1.632812 6.171875 -2 C 6.378906 -2.363281 6.484375 -2.78125 6.484375 -3.25 C 6.484375 -3.726562 6.378906 -4.144531 6.171875 -4.5 C 5.972656 -4.863281 5.691406 -5.144531 5.328125 -5.34375 C 4.972656 -5.550781 4.5625 -5.65625 4.09375 -5.65625 C 3.625 -5.65625 3.207031 -5.550781 2.84375 -5.34375 C 2.488281 -5.144531 2.207031 -4.863281 2 -4.5 C 1.800781 -4.144531 1.703125 -3.726562 1.703125 -3.25 Z M 1.703125 -3.25 "/></g></g></g><g fill="#222222" fill-opacity="1"><g transform="translate(197.274979, 28.600796)"><g><path d="M 1.15625 0 L 1.15625 -6.5 L 2.03125 -6.5 L 2.125 -5.6875 C 2.625 -6.332031 3.332031 -6.65625 4.25 -6.65625 C 4.757812 -6.65625 5.207031 -6.546875 5.59375 -6.328125 C 5.988281 -6.109375 6.296875 -5.789062 6.515625 -5.375 C 7.046875 -6.226562 7.851562 -6.65625 8.9375 -6.65625 C 9.75 -6.65625 10.398438 -6.390625 10.890625 -5.859375 C 11.378906 -5.335938 11.625 -4.625 11.625 -3.71875 L 11.625 0 L 10.578125 0 L 10.578125 -3.546875 C 10.578125 -4.179688 10.414062 -4.691406 10.09375 -5.078125 C 9.769531 -5.460938 9.335938 -5.65625 8.796875 -5.65625 C 8.234375 -5.65625 7.78125 -5.453125 7.4375 -5.046875 C 7.09375 -4.648438 6.921875 -4.117188 6.921875 -3.453125 L 6.921875 0 L 5.875 0 L 5.875 -3.546875 C 5.875 -4.179688 5.710938 -4.691406 5.390625 -5.078125 C 5.066406 -5.460938 4.632812 -5.65625 4.09375 -5.65625 C 3.53125 -5.65625 3.078125 -5.453125 2.734375 -5.046875 C 2.390625 -4.648438 2.21875 -4.117188 2.21875 -3.453125 L 2.21875 0 Z M 1.15625 0 "/></g></g></g></g></g><g transform="matrix(1, 0, 0, 1, 261, 139)"><g clip-path="url(#0fd5151243)"><g fill="#000000" fill-opacity="1"><g transform="translate(0.45069, 58.934218)"><g><path d="M 5.59375 0 L 5.59375 -38.375 L 20.453125 -38.375 C 24.140625 -38.375 27.085938 -37.453125 29.296875 -35.609375 C 31.515625 -33.765625 32.625 -31.289062 32.625 -28.1875 C 32.625 -26.320312 32.179688 -24.675781 31.296875 -23.25 C 30.421875 -21.820312 29.203125 -20.707031 27.640625 -19.90625 C 29.609375 -19.101562 31.113281 -17.914062 32.15625 -16.34375 C 33.195312 -14.769531 33.71875 -12.90625 33.71875 -10.75 C 33.71875 -7.414062 32.59375 -4.789062 30.34375 -2.875 C 28.09375 -0.957031 25.03125 0 21.15625 0 Z M 10.421875 -4.5 L 21.046875 -4.5 C 23.535156 -4.5 25.445312 -5.0625 26.78125 -6.1875 C 28.113281 -7.320312 28.78125 -8.914062 28.78125 -10.96875 C 28.78125 -13.007812 28.101562 -14.585938 26.75 -15.703125 C 25.40625 -16.816406 23.488281 -17.375 21 -17.375 L 10.421875 -17.375 Z M 10.421875 -21.765625 L 20.34375 -21.765625 C 22.71875 -21.765625 24.535156 -22.296875 25.796875 -23.359375 C 27.054688 -24.421875 27.6875 -25.898438 27.6875 -27.796875 C 27.6875 -29.734375 27.046875 -31.234375 25.765625 -32.296875 C 24.484375 -33.359375 22.675781 -33.890625 20.34375 -33.890625 L 10.421875 -33.890625 Z M 10.421875 -21.765625 "/></g></g></g><g fill="#000000" fill-opacity="1"><g transform="translate(35.58462, 58.934218)"><g><path d="M 5.59375 0 L 5.59375 -38.375 L 18.859375 -38.375 C 22.804688 -38.375 26.25 -37.5625 29.1875 -35.9375 C 32.132812 -34.3125 34.429688 -32.0625 36.078125 -29.1875 C 37.722656 -26.320312 38.546875 -22.988281 38.546875 -19.1875 C 38.546875 -15.425781 37.722656 -12.097656 36.078125 -9.203125 C 34.429688 -6.316406 32.132812 -4.0625 29.1875 -2.4375 C 26.25 -0.8125 22.804688 0 18.859375 0 Z M 10.421875 -4.609375 L 18.859375 -4.609375 C 21.785156 -4.609375 24.351562 -5.21875 26.5625 -6.4375 C 28.769531 -7.664062 30.492188 -9.375 31.734375 -11.5625 C 32.984375 -13.757812 33.609375 -16.300781 33.609375 -19.1875 C 33.609375 -22.113281 32.976562 -24.660156 31.71875 -26.828125 C 30.457031 -29.003906 28.710938 -30.707031 26.484375 -31.9375 C 24.253906 -33.164062 21.640625 -33.78125 18.640625 -33.78125 L 10.421875 -33.78125 Z M 10.421875 -4.609375 "/></g></g></g></g></g><path stroke-linecap="butt" transform="matrix(0.75, 0, 0, 0.75, 209.847984, 143.997763)" fill="none" stroke-linejoin="miter" d="M -0.000437427 4.497774 L 170.202699 4.497774 " stroke="#ff0044" stroke-width="9" stroke-opacity="1" stroke-miterlimit="4"/></svg>